<?xml version="1.0" encoding="UTF-8"?>
<svg xmlns="http://www.w3.org/2000/svg" xmlns:xlink="http://www.w3.org/1999/xlink" width="443.333pt" height="81.3333pt" viewBox="0 0 443.333 81.3333">
<path fill-rule="nonzero" fill="rgb(39.610291%, 38.511658%, 38.78479%)" fill-opacity="1" d="M 202.167969 49.917969 C 200.347656 51.667969 198.472656 53.039062 196.601562 53.992188 C 194.8125 54.902344 192.617188 55.367188 190.082031 55.367188 C 188.0625 55.367188 186.171875 54.972656 184.460938 54.195312 C 182.734375 53.40625 181.210938 52.320312 179.941406 50.960938 C 178.667969 49.601562 177.65625 47.96875 176.933594 46.105469 C 176.214844 44.234375 175.847656 42.191406 175.847656 40.023438 C 175.847656 37.863281 176.210938 35.828125 176.933594 33.980469 C 177.652344 32.136719 178.664062 30.507812 179.941406 29.144531 C 181.210938 27.789062 182.726562 26.714844 184.449219 25.949219 C 186.164062 25.1875 188.058594 24.800781 190.082031 24.800781 C 192.613281 24.800781 194.789062 25.269531 196.558594 26.195312 C 198.421875 27.175781 200.199219 28.445312 201.835938 29.972656 L 202.941406 31.003906 L 208.125 25.4375 L 207.050781 24.40625 C 206.003906 23.398438 204.894531 22.464844 203.761719 21.632812 C 202.589844 20.777344 201.300781 20.039062 199.929688 19.433594 C 198.5625 18.835938 197.0625 18.363281 195.476562 18.03125 C 193.886719 17.703125 192.09375 17.535156 190.140625 17.535156 C 186.960938 17.535156 183.980469 18.136719 181.28125 19.316406 C 178.589844 20.5 176.234375 22.140625 174.285156 24.195312 C 172.339844 26.242188 170.800781 28.660156 169.707031 31.382812 C 168.613281 34.109375 168.058594 37.054688 168.058594 40.140625 C 168.058594 43.265625 168.613281 46.234375 169.707031 48.957031 C 170.800781 51.683594 172.34375 54.085938 174.292969 56.097656 C 176.242188 58.113281 178.574219 59.71875 181.226562 60.878906 C 183.886719 62.042969 186.828125 62.632812 189.964844 62.632812 C 191.933594 62.632812 193.746094 62.441406 195.363281 62.070312 C 196.972656 61.699219 198.5 61.175781 199.90625 60.511719 C 201.3125 59.851562 202.644531 59.042969 203.871094 58.109375 C 205.070312 57.191406 206.234375 56.152344 207.324219 55.023438 L 208.367188 53.941406 L 203.226562 48.902344 Z M 202.167969 49.917969 "/>
<path fill-rule="nonzero" fill="rgb(39.610291%, 38.511658%, 38.78479%)" fill-opacity="1" d="M 305.722656 25.238281 L 314.058594 25.238281 C 322.269531 25.238281 328.953125 31.898438 328.953125 40.085938 C 328.953125 48.269531 322.292969 54.929688 314.109375 54.929688 L 305.722656 54.929688 Z M 314.109375 18.234375 L 298.269531 18.234375 L 298.269531 61.933594 L 314.109375 61.933594 C 326.152344 61.933594 335.953125 52.132812 335.953125 40.085938 C 335.953125 28.035156 326.152344 18.234375 314.109375 18.234375 "/>
<path fill-rule="nonzero" fill="rgb(39.610291%, 38.511658%, 38.78479%)" fill-opacity="1" d="M 139.335938 61.933594 L 166.25 61.933594 L 166.25 54.929688 L 146.789062 54.929688 L 146.789062 43.332031 L 163.582031 43.332031 L 163.582031 36.832031 L 146.789062 36.832031 L 146.789062 25.242188 L 166.25 25.242188 L 166.25 18.234375 L 139.335938 18.234375 Z M 139.335938 61.933594 "/>
<path fill-rule="nonzero" fill="rgb(39.610291%, 38.511658%, 38.78479%)" fill-opacity="1" d="M 402.824219 61.933594 L 410.269531 61.933594 L 410.269531 18.230469 L 402.824219 18.230469 Z M 402.824219 61.933594 "/>
<path fill-rule="nonzero" fill="rgb(39.610291%, 38.511658%, 38.78479%)" fill-opacity="1" d="M 367.351562 25.238281 L 380.199219 25.238281 L 380.199219 61.933594 L 387.652344 61.933594 L 387.652344 25.238281 L 399.929688 25.238281 L 399.929688 18.234375 L 367.351562 18.234375 Z M 367.351562 25.238281 "/>
<path fill-rule="nonzero" fill="rgb(39.610291%, 38.511658%, 38.78479%)" fill-opacity="1" d="M 245.609375 40.082031 C 245.609375 48.519531 238.746094 55.382812 230.3125 55.382812 C 221.878906 55.382812 215.019531 48.519531 215.019531 40.082031 C 215.019531 31.648438 221.878906 24.785156 230.3125 24.785156 C 238.746094 24.785156 245.609375 31.648438 245.609375 40.082031 M 230.3125 17.328125 C 217.769531 17.328125 207.5625 27.535156 207.5625 40.082031 C 207.5625 52.628906 217.769531 62.839844 230.3125 62.839844 C 242.863281 62.839844 253.070312 52.628906 253.070312 40.082031 C 253.070312 27.535156 242.863281 17.328125 230.3125 17.328125 "/>
<path fill-rule="nonzero" fill="rgb(39.610291%, 38.511658%, 38.78479%)" fill-opacity="1" d="M 264.015625 25.238281 L 279.28125 25.242188 C 283.394531 25.242188 286.738281 28.589844 286.738281 32.703125 C 286.738281 36.816406 283.394531 40.160156 279.28125 40.160156 L 264.015625 40.160156 Z M 294.175781 32.703125 C 294.175781 24.726562 287.6875 18.234375 279.714844 18.234375 L 257.007812 18.234375 L 257.007812 61.933594 L 264.015625 61.933594 L 264.015625 41.40625 L 284.546875 61.933594 L 295.039062 61.933594 L 280.273438 47.15625 C 287.988281 46.863281 294.175781 40.492188 294.175781 32.703125 "/>
<path fill-rule="nonzero" fill="rgb(39.610291%, 38.511658%, 38.78479%)" fill-opacity="1" d="M 105.695312 25.238281 L 120.960938 25.242188 C 125.074219 25.242188 128.417969 28.589844 128.417969 32.703125 C 128.417969 36.816406 125.074219 40.160156 120.960938 40.160156 L 105.695312 40.160156 Z M 135.855469 32.703125 C 135.855469 24.726562 129.367188 18.234375 121.394531 18.234375 L 98.691406 18.234375 L 98.691406 61.933594 L 105.695312 61.933594 L 105.695312 41.40625 L 126.226562 61.933594 L 136.71875 61.933594 L 121.953125 47.15625 C 129.667969 46.863281 135.855469 40.492188 135.855469 32.703125 "/>
<path fill-rule="nonzero" fill="rgb(85.76355%, 11.999512%, 14.941406%)" fill-opacity="1" d="M 31.242188 34.957031 C 31.242188 34.585938 31.457031 34.496094 31.71875 34.761719 L 58.277344 61.457031 C 58.539062 61.71875 58.449219 61.933594 58.082031 61.933594 L 31.914062 61.933594 C 31.542969 61.933594 31.242188 61.632812 31.242188 61.257812 Z M 31.242188 34.957031 "/>
<path fill-rule="nonzero" fill="rgb(85.76355%, 11.999512%, 14.941406%)" fill-opacity="1" d="M 31.242188 7.304688 C 31.242188 6.933594 31.457031 6.84375 31.71875 7.109375 L 85.78125 61.457031 C 86.042969 61.71875 85.957031 61.933594 85.585938 61.933594 L 64.921875 61.933594 C 64.550781 61.933594 64.039062 61.71875 63.777344 61.457031 L 31.71875 29.230469 C 31.457031 28.964844 31.242188 28.449219 31.242188 28.078125 Z M 31.242188 7.304688 "/>
<path fill-rule="nonzero" fill="rgb(85.76355%, 11.999512%, 14.941406%)" fill-opacity="1" d="M 37.414062 6.632812 C 37.046875 6.632812 36.957031 6.84375 37.21875 7.109375 L 74.78125 44.867188 C 75.042969 45.128906 75.46875 45.128906 75.730469 44.867188 L 85.78125 34.761719 C 86.042969 34.496094 86.042969 34.070312 85.78125 33.804688 L 59.226562 7.109375 C 58.964844 6.84375 58.453125 6.632812 58.082031 6.632812 Z M 37.414062 6.632812 "/>
<path fill-rule="nonzero" fill="rgb(39.610291%, 38.511658%, 38.78479%)" fill-opacity="1" d="M 354.292969 31.171875 L 361.914062 48.128906 L 346.667969 48.128906 Z M 340.460938 61.933594 L 343.496094 55.179688 L 365.085938 55.179688 L 368.125 61.933594 L 376.484375 61.933594 L 376.316406 61.554688 L 357.011719 18.222656 L 351.574219 18.222656 L 332.269531 61.554688 L 332.101562 61.933594 Z M 340.460938 61.933594 "/>
</svg>
